<svg width="28" height="28" viewBox="0 0 28 28" fill="none" xmlns="http://www.w3.org/2000/svg">
<path d="M11 24C11.5523 24 12 23.5523 12 23C12 22.4477 11.5523 22 11 22C10.4477 22 10 22.4477 10 23C10 23.5523 10.4477 24 11 24Z" stroke="black" stroke-width="2" stroke-linecap="round" stroke-linejoin="round"/>
<path d="M22 24C22.5523 24 23 23.5523 23 23C23 22.4477 22.5523 22 22 22C21.4477 22 21 22.4477 21 23C21 23.5523 21.4477 24 22 24Z" stroke="black" stroke-width="2" stroke-linecap="round" stroke-linejoin="round"/>
<path d="M3 3H7L9.68 16.39C9.77144 16.8504 10.0219 17.264 10.3875 17.5583C10.7532 17.8526 11.2107 18.009 11.68 18H21.4C21.8693 18.009 22.3268 17.8526 22.6925 17.5583C23.0581 17.264 23.3086 16.8504 23.4 16.39L25 8H8" stroke="black" stroke-width="2" stroke-linecap="round" stroke-linejoin="round"/>
</svg>
