<svg width="246" height="237" viewBox="0 0 246 237" fill="none" xmlns="http://www.w3.org/2000/svg">
<path d="M209.155 35.0155C186.147 12.949 155.507 0.812523 122.945 0.812523C55.7344 0.812523 1.0433 53.1414 1.0433 117.449C1.0433 137.992 6.6442 158.062 17.2969 175.768L0 236.188L64.6299 219.953C82.421 229.252 102.463 234.139 122.89 234.139H122.945C190.101 234.139 246 181.81 246 117.502C246 86.3461 232.162 57.0819 209.155 35.0155V35.0155ZM122.945 214.489C104.715 214.489 86.8687 209.813 71.329 200.986L67.65 198.885L29.3223 208.499L39.5357 172.72L37.1196 169.043C26.9612 153.596 21.6348 135.785 21.6348 117.449C21.6348 64.017 67.1009 20.5147 123 20.5147C150.071 20.5147 175.495 30.6022 194.604 48.9383C213.712 67.2744 225.463 91.6 225.408 117.502C225.408 170.987 178.789 214.489 122.945 214.489V214.489ZM178.515 141.88C175.495 140.409 160.504 133.369 157.704 132.423C154.903 131.425 152.871 130.952 150.84 133.894C148.808 136.836 142.988 143.351 141.175 145.347C139.418 147.291 137.606 147.554 134.586 146.083C116.685 137.519 104.934 130.794 93.1286 111.407C89.9987 106.258 96.2585 106.626 102.079 95.4879C103.067 93.544 102.573 91.8627 101.804 90.3916C101.036 88.9205 94.9406 74.5774 92.4147 68.7455C89.9438 63.0713 87.4179 63.8594 85.5509 63.7543C83.7938 63.6492 81.7621 63.6492 79.7304 63.6492C77.6987 63.6492 74.404 64.3848 71.6036 67.2744C68.8031 70.2166 60.9509 77.2569 60.9509 91.6C60.9509 105.943 71.8781 119.814 73.3607 121.757C74.8982 123.701 94.8308 153.123 125.416 165.785C144.745 173.771 152.322 174.454 161.987 173.088C167.862 172.247 179.997 166.048 182.523 159.218C185.049 152.388 185.049 146.556 184.28 145.347C183.567 144.034 181.535 143.298 178.515 141.88Z" fill="white"/>
</svg>
